# xmcd
#
# Track frame offsets:
#	150
#	14838
#	27326
#	45974
#	62834
#	81539
#	97100
#	118596
#	132809
#	152204
#	168764
#	182009
#	198644
#	211271
#	230872
#	244259
#
# Disc length: 3538 seconds
#
# Revision: 1
# Processed by: cddbd v1.5.2PL0 Copyright (c) Steve Scherf et al.
# Submitted via: audiograbber 1.83.01
#
DISCID=e40dd010
DTITLE=Saffire - The Uppity Blues Women - Havin' The Last Word
DYEAR=2009
DGENRE=
TTITLE0=Going Down To The River
TTITLE1=Nothin' In Your House
TTITLE2=Kitchen Man
TTITLE3=Somebody's Gotta Give
TTITLE4=Bald Headed Blues
TTITLE5=Since You Been Gone
TTITLE6=Blue Lullaby
TTITLE7=Travelin' At The Speed Of Love
TTITLE8=I Can Do Bad All By Myself
TTITLE9=Too Much Butt
TTITLE10=Haste Makes Waste
TTITLE11=Locked Up
TTITLE12=Walkin' Home To You
TTITLE13=Bald Eagle
TTITLE14=I'm Growing Older
TTITLE15=The Bad Times
EXTD=Alligator Records Al 4927
EXTT0=
EXTT1=
EXTT2=
EXTT3=
EXTT4=
EXTT5=
EXTT6=
EXTT7=
EXTT8=
EXTT9=
EXTT10=
EXTT11=
EXTT12=
EXTT13=
EXTT14=
EXTT15=
PLAYORDER=
